<?xml version="1.0" standalone="no"?>
<!DOCTYPE svg PUBLIC "-//W3C//DTD SVG 20010904//EN"
 "http://www.w3.org/TR/2001/REC-SVG-20010904/DTD/svg10.dtd">
<svg version="1.0" xmlns="http://www.w3.org/2000/svg"
 width="512.000000pt" height="512.000000pt" viewBox="0 0 512.000000 512.000000"
 preserveAspectRatio="xMidYMid meet">

<g transform="translate(0.000000,512.000000) scale(0.100000,-0.100000)"
fill="#000000" stroke="none">
<path d="M383 5105 c-182 -49 -320 -189 -368 -372 -23 -86 -23 -3460 0 -3546
48 -185 187 -324 372 -372 47 -12 142 -15 515 -15 252 0 458 -2 458 -5 0 -3
-74 -154 -165 -335 -178 -356 -185 -376 -141 -427 l24 -28 1482 0 1482 0 24
28 c44 51 37 71 -141 427 -91 181 -165 332 -165 335 0 3 206 5 458 5 373 0
468 3 515 15 185 48 324 187 372 372 23 86 23 3460 0 3546 -48 185 -187 324
-372 372 -84 22 -4269 21 -4350 0z m4321 -199 c67 -20 123 -62 162 -121 19
-27 34 -53 34 -57 0 -5 -1053 -8 -2340 -8 -1287 0 -2340 3 -2340 7 0 3 14 28
31 54 37 58 88 98 154 121 47 16 185 17 2151 18 1794 0 2108 -2 2148 -14z
m216 -1746 l0 -1360 -2360 0 -2360 0 0 1360 0 1360 2360 0 2360 0 0 -1360z
m-2 -1747 c-3 -175 -5 -191 -27 -237 -31 -63 -84 -116 -147 -147 l-49 -24
-2135 0 -2135 0 -49 24 c-63 31 -116 84 -147 147 -22 46 -24 62 -27 237 l-4
187 2362 0 2362 0 -4 -187z m-1238 -913 l150 -300 -1270 0 -1270 0 52 105 53
105 488 0 489 0 29 29 c41 41 41 101 0 142 l-29 29 -436 0 c-240 0 -436 2
-436 5 0 3 20 46 45 95 l45 90 970 0 970 0 150 -300z"/>
<path d="M1920 4200 c-14 -14 -20 -33 -20 -65 0 -72 20 -85 130 -85 l90 0 0
-339 c0 -384 -5 -361 83 -369 42 -3 57 0 80 18 l27 21 0 335 0 334 84 0 c101
0 124 14 133 77 5 35 2 45 -20 67 l-26 26 -271 0 c-257 0 -271 -1 -290 -20z"/>
<path d="M2757 4206 c-51 -19 -67 -34 -67 -65 0 -27 212 -727 231 -763 6 -11
26 -26 44 -34 75 -31 164 -8 190 48 25 55 225 724 225 752 0 30 -41 60 -97 71
-69 13 -72 6 -158 -312 -42 -158 -81 -296 -84 -307 -5 -12 -37 90 -90 285 -97
357 -98 359 -194 325z"/>
<path d="M1050 3064 c-119 -43 -176 -119 -174 -234 1 -121 52 -182 217 -265
62 -31 122 -67 135 -81 30 -34 29 -77 -4 -103 -57 -45 -128 -36 -218 26 -59
41 -97 43 -125 6 -62 -78 -21 -153 112 -202 64 -23 194 -29 259 -11 147 41
223 193 172 342 -27 80 -71 120 -214 193 -71 36 -134 74 -140 85 -17 32 -1 71
36 86 46 19 87 17 169 -10 81 -27 100 -24 126 18 36 59 22 104 -44 138 -56 30
-238 37 -307 12z"/>
<path d="M1713 3065 l-33 -14 0 -410 0 -410 22 -15 c13 -9 43 -16 71 -16 38 0
53 5 72 25 25 24 25 27 25 190 l0 165 115 0 115 0 0 -169 0 -170 26 -20 c32
-25 92 -28 134 -6 l30 16 0 403 c0 392 -1 403 -20 421 -28 25 -107 26 -143 2
l-27 -17 0 -155 0 -155 -115 0 -115 0 0 139 c0 77 -4 151 -9 164 -10 25 -55
47 -95 47 -12 -1 -36 -7 -53 -15z"/>
<path d="M2775 3070 c-102 -22 -157 -61 -194 -139 -26 -55 -26 -58 -26 -291 0
-164 4 -248 13 -278 62 -204 435 -233 542 -42 25 45 25 45 25 315 0 301 0 300
-71 369 -57 56 -193 87 -289 66z m146 -189 l29 -29 0 -212 c0 -260 -7 -279
-103 -280 -97 0 -112 45 -105 322 4 171 10 196 53 217 11 5 37 10 58 10 30 1
45 -6 68 -28z"/>
<path d="M3417 3066 c-53 -19 -67 -34 -66 -70 0 -17 55 -195 122 -396 140
-417 133 -405 240 -405 89 1 111 18 130 103 8 37 23 103 33 147 l18 80 23
-100 c45 -195 45 -196 83 -217 26 -14 49 -18 88 -15 96 7 93 0 225 398 65 197
119 374 120 398 2 40 -1 46 -28 62 -16 10 -46 20 -65 24 -65 12 -71 0 -167
-327 -48 -164 -90 -298 -94 -298 -3 0 -25 87 -49 193 -51 221 -60 237 -133
237 -82 0 -92 -20 -162 -342 -11 -49 -22 -88 -26 -88 -3 0 -45 134 -93 298
-103 349 -104 351 -199 318z"/>
<path d="M2659 581 c-64 -65 -20 -171 71 -171 33 0 48 6 71 29 64 65 20 171
-71 171 -33 0 -48 -6 -71 -29z"/>
</g>
</svg>
