<?xml version="1.0" standalone="no"?>
<!DOCTYPE svg PUBLIC "-//W3C//DTD SVG 20010904//EN"
 "http://www.w3.org/TR/2001/REC-SVG-20010904/DTD/svg10.dtd">
<svg version="1.0" xmlns="http://www.w3.org/2000/svg"
 width="512.000000pt" height="512.000000pt" viewBox="0 0 512.000000 512.000000"
 preserveAspectRatio="xMidYMid meet">

<g transform="translate(0.000000,512.000000) scale(0.100000,-0.100000)"
fill="#000000" stroke="none">
<path d="M2064 4324 c-5 -19 -9 -22 -15 -12 -5 7 -9 9 -9 4 0 -5 -6 -3 -14 3
-8 7 -17 8 -20 3 -3 -6 -22 -8 -43 -5 -27 4 -40 1 -50 -12 -9 -14 -16 -15 -26
-7 -7 6 -18 7 -26 3 -7 -5 -22 -6 -32 -4 -12 3 -19 0 -19 -8 0 -11 -2 -11 -8
-1 -7 9 -13 8 -27 -8 -10 -11 -24 -20 -31 -20 -7 0 -16 -9 -19 -20 -4 -11 -10
-18 -15 -15 -12 8 -57 -19 -53 -32 2 -6 -13 -15 -34 -20 -21 -5 -37 -15 -35
-21 1 -9 -82 -12 -330 -12 -289 0 -334 -2 -349 -16 -10 -9 -41 -74 -70 -146
-37 -92 -63 -141 -88 -168 -49 -50 -131 -80 -222 -80 -74 0 -110 -13 -145 -52
-20 -21 -64 -99 -64 -113 0 -3 152 -2 337 1 186 4 336 4 333 1 -3 -3 -169 -8
-370 -12 -201 -3 -387 -11 -413 -17 -33 -7 -61 -22 -87 -47 -48 -45 -58 -99
-41 -221 87 -639 140 -1157 172 -1707 l12 -203 -33 -72 c-58 -125 -52 -268 15
-367 24 -36 34 -64 38 -110 7 -61 26 -112 55 -140 13 -13 11 -17 -17 -30 -17
-8 -31 -18 -31 -22 0 -10 46 -24 158 -49 102 -22 188 -58 275 -113 107 -69
137 -81 207 -81 74 0 143 29 220 93 84 70 45 66 585 61 1772 -18 3115 21 3115
89 0 4 -19 15 -41 24 l-41 16 25 30 c32 39 47 108 47 224 0 139 27 667 50 972
32 426 71 779 152 1401 9 73 9 100 -2 138 -15 56 -62 99 -124 114 -22 6 -241
14 -486 18 -245 3 -481 8 -525 9 -44 1 -279 4 -523 5 -243 1 -444 5 -446 9 -5
8 594 4 1308 -9 308 -6 561 -8 563 -6 7 6 -37 88 -61 114 -34 39 -71 52 -140
52 -86 0 -170 31 -217 80 -25 27 -51 76 -88 168 -29 72 -60 137 -70 146 -15
14 -104 16 -824 16 -450 0 -807 4 -807 9 0 5 -11 12 -25 15 -16 4 -25 13 -25
27 0 17 -3 18 -20 9 -15 -8 -20 -8 -20 1 0 7 -3 10 -6 6 -3 -3 -15 3 -27 14
-11 10 -29 19 -38 19 -10 0 -21 5 -24 10 -4 6 -10 8 -15 5 -5 -3 -12 0 -16 6
-4 8 -9 7 -15 -2 -6 -10 -9 -11 -9 -1 0 6 -11 12 -25 12 -16 0 -25 6 -25 15 0
8 -6 16 -12 16 -7 1 -24 2 -38 3 -14 1 -33 6 -42 10 -10 5 -25 6 -33 2 -8 -3
-18 0 -22 7 -5 7 -16 13 -25 13 -10 1 -29 5 -42 8 -22 5 -27 2 -32 -20z m-527
-329 c-15 -14 -33 -25 -40 -25 -6 0 4 11 23 25 43 32 53 32 17 0z m177 -107
c-5 -7 2 -9 20 -6 27 5 27 5 7 -13 -11 -11 -27 -19 -35 -19 -19 0 -32 20 -14
21 10 0 10 2 1 6 -10 3 -10 7 0 18 14 15 31 9 21 -7z m-41 -32 c5 -13 -10 -36
-25 -36 -4 0 -5 8 -2 18 5 16 5 16 -6 0 -11 -19 -36 -26 -25 -8 3 6 1 10 -4
10 -6 0 -11 5 -11 11 0 6 6 9 13 6 8 -3 20 -1 28 4 19 12 26 11 32 -5z m-74
-58 c1 8 13 11 38 8 20 -3 43 0 51 6 10 9 16 8 22 -2 5 -8 6 -18 4 -22 -3 -4
0 -8 7 -8 7 0 26 -10 43 -23 45 -34 61 -42 52 -28 -4 6 8 4 28 -6 20 -9 36
-21 36 -26 0 -11 60 2 84 19 16 11 24 11 47 -2 15 -7 39 -14 52 -14 12 0 28
-5 35 -12 9 -9 16 -8 29 4 10 8 24 13 31 11 6 -3 12 1 12 9 0 9 14 12 47 11
105 -5 138 -15 129 -40 -4 -10 -2 -13 8 -10 11 5 14 -2 13 -28 -2 -19 -6 -37
-9 -41 -13 -13 4 -25 18 -13 7 6 11 16 7 22 -3 6 -1 7 6 3 6 -4 9 -12 5 -17
-3 -5 -7 -20 -9 -32 -4 -17 0 -23 14 -23 19 0 23 25 6 39 -6 6 -6 10 3 14 6 2
10 8 8 12 -3 4 1 8 9 8 18 0 20 -13 3 -20 -9 -4 -9 -8 -3 -14 13 -10 18 -93 6
-93 -9 0 -12 -49 -3 -64 8 -15 10 -66 2 -66 -4 0 -6 -17 -5 -37 2 -21 -1 -46
-6 -55 -7 -12 -6 -18 1 -18 6 0 10 -15 8 -34 -1 -19 5 -42 13 -52 13 -16 12
-17 -5 -11 -13 5 -17 3 -13 -6 3 -8 0 -14 -6 -15 -57 -8 -79 -7 -86 2 -5 6
-29 10 -53 8 -23 -2 -65 -5 -93 -7 -27 -2 -61 -7 -75 -13 -16 -6 -27 -6 -31 0
-4 6 -17 3 -34 -8 -23 -15 -28 -15 -36 -3 -5 8 -9 11 -9 7 0 -3 -3 -13 -6 -21
-3 -9 3 -17 18 -21 l23 -6 -25 -15 -25 -14 23 -1 c24 0 24 -1 15 -62 -8 -64
-10 -159 -3 -236 3 -36 -1 -47 -25 -72 -39 -41 -88 -49 -125 -21 -41 30 -49
26 -17 -7 15 -16 24 -31 20 -35 -3 -4 -1 -7 6 -7 9 0 11 -8 8 -22 -3 -13 0
-31 8 -42 12 -16 12 -21 -1 -33 -17 -17 -19 -37 -2 -27 8 5 9 2 5 -10 -11 -27
36 -16 48 12 10 23 25 30 25 12 0 -5 7 -10 16 -10 8 0 13 -4 9 -9 -3 -5 -1
-12 5 -16 5 -3 10 0 10 7 1 8 4 7 10 -4 18 -31 1 -46 -60 -53 -36 -4 -66 -3
-78 4 -12 6 -47 10 -79 10 l-58 -1 65 -9 c36 -5 73 -13 82 -19 10 -5 34 -10
55 -10 53 0 153 -22 154 -35 3 -29 -5 -60 -19 -74 -14 -15 -15 -14 -9 2 6 17
1 18 -75 15 -58 -2 -83 1 -86 10 -2 6 -8 12 -13 12 -6 0 -8 -4 -5 -8 2 -4 -4
-8 -15 -8 -10 0 -19 4 -19 8 0 9 -36 5 -46 -4 -3 -4 -13 -4 -21 -1 -19 8 -52
-33 -53 -64 0 -13 -5 -23 -12 -23 -6 0 -8 -3 -5 -6 4 -4 17 0 29 8 31 20 133
21 149 2 9 -11 9 -14 0 -14 -7 0 -9 -5 -5 -11 4 -7 9 -7 13 -2 7 11 43 10 83
-1 24 -7 25 -10 17 -39 -12 -43 -23 -51 -49 -37 -22 12 -23 11 -17 -24 3 -22
2 -34 -4 -31 -5 4 -9 16 -10 28 0 21 -1 21 -8 2 -5 -11 -6 -27 -3 -35 5 -13 3
-13 -11 -1 -15 12 -17 11 -17 -3 0 -24 -19 -20 -30 7 -7 17 -9 18 -9 5 -1 -22
-17 -23 -28 -3 -11 20 -73 28 -66 9 7 -18 -27 -31 -37 -14 -4 7 -10 8 -13 3
-4 -6 5 -16 19 -23 14 -8 32 -30 41 -49 9 -20 30 -49 47 -64 17 -16 24 -26 16
-24 -8 3 -24 8 -35 12 -15 5 -17 4 -5 -3 57 -38 228 -74 355 -75 103 -1 164
20 224 76 l35 32 -18 -28 c-10 -16 -15 -31 -13 -34 9 -8 48 8 42 17 -3 4 11
22 31 40 29 25 39 29 45 18 7 -10 9 -10 10 2 0 11 2 10 8 -4 4 -10 4 -48 0
-85 -4 -36 -10 -136 -13 -221 -17 -405 -26 -583 -36 -672 -5 -54 -14 -142 -20
-195 -5 -54 -13 -118 -16 -142 l-7 -44 -84 7 c-47 3 -94 11 -106 18 -27 14
-47 34 -47 46 0 5 -6 15 -14 21 -8 7 -18 26 -21 42 -4 16 -10 27 -15 24 -4 -3
-10 12 -13 33 -8 57 -24 114 -36 121 -10 7 -67 207 -96 341 -9 41 -30 120 -45
175 -16 55 -31 120 -35 145 -4 25 -23 74 -42 110 -20 36 -44 90 -55 120 -10
30 -30 72 -43 92 -14 21 -25 40 -25 42 0 3 -20 33 -44 68 -24 35 -47 73 -50
86 -4 12 -14 22 -22 22 -10 0 -14 14 -14 59 0 32 -2 74 -5 92 l-5 34 13 -29
14 -28 21 23 c12 12 22 28 22 33 0 6 -7 2 -16 -9 -13 -17 -16 -18 -24 -5 -6 9
-6 16 0 18 6 2 10 10 10 18 0 7 -6 11 -13 8 -8 -3 -17 11 -26 40 -7 25 -19 47
-26 50 -8 3 -11 13 -8 24 5 21 -12 39 -22 22 -9 -14 -47 -12 -70 3 -49 33
-236 67 -260 47 -24 -20 -170 -3 -232 27 -50 24 -52 26 -46 56 7 35 40 66 87
83 17 6 38 24 47 40 14 25 21 29 55 26 21 -2 43 -7 49 -12 5 -4 28 -11 50 -15
55 -10 200 -99 257 -158 l48 -48 -20 47 c-11 26 -23 77 -26 113 -3 36 -7 83
-9 103 -2 25 -12 45 -29 60 -24 21 -27 32 -33 118 -3 52 -14 119 -25 149 -10
30 -18 67 -18 82 0 15 -5 29 -11 31 -14 5 -21 76 -9 83 5 3 7 12 3 20 -4 11 2
15 18 14 13 0 19 -3 12 -5 -7 -3 -9 -12 -6 -21 4 -11 2 -14 -5 -9 -8 4 -11 -3
-9 -24 1 -22 6 -28 18 -25 13 4 19 -4 24 -32 13 -64 15 -76 19 -127 3 -32 12
-56 25 -70 l21 -20 -1 79 c0 44 6 118 15 165 8 47 17 135 20 197 2 61 7 116
10 122 11 17 -27 0 -41 -18 -9 -13 -10 -11 -6 12 3 15 10 24 15 21 5 -3 9 0 7
7 -3 26 1 40 10 34 5 -3 13 0 17 6 4 8 3 9 -4 5 -7 -4 -12 -3 -12 3 0 5 5 13
10 16 6 3 10 15 10 26 0 10 14 51 32 90 25 57 33 68 39 53 4 -11 8 -13 8 -6z
m-99 -73 c0 -2 -10 -9 -22 -15 -22 -11 -22 -10 -4 4 21 17 26 19 26 11z m-121
-39 c-3 -3 -11 5 -18 17 -13 21 -12 21 5 5 10 -10 16 -20 13 -22z m531 24 c0
-5 -5 -10 -11 -10 -5 0 -7 5 -4 10 3 6 8 10 11 10 2 0 4 -4 4 -10z m-637 -137
c-24 -2 -62 -2 -85 0 -24 2 -5 4 42 4 47 0 66 -2 43 -4z m101 -29 c3 -8 2 -12
-4 -9 -6 3 -10 10 -10 16 0 14 7 11 14 -7z m118 -36 c-7 -7 -12 -8 -12 -2 0
14 12 26 19 19 2 -3 -1 -11 -7 -17z m-39 -15 c-5 -12 -3 -14 7 -8 9 6 11 4 5
-4 -5 -9 -11 -9 -17 -3 -6 6 -7 15 -4 21 11 17 16 13 9 -6z m-72 -16 c-10 -9
-11 -8 -5 6 3 10 9 15 12 12 3 -3 0 -11 -7 -18z m69 -37 c0 -5 -4 -10 -9 -10
-5 0 -14 -12 -20 -27 -10 -26 -11 -26 -6 -3 2 14 5 31 5 38 0 6 7 12 15 12 8
0 15 -4 15 -10z m-65 -41 c-3 -51 -22 -55 -22 -5 0 29 4 43 12 40 6 -3 11 -18
10 -35z m1455 -23 c-5 -21 -3 -39 3 -45 6 -6 8 -14 4 -18 -4 -3 -14 2 -21 13
-8 10 -10 21 -5 22 5 2 9 17 9 33 0 16 4 29 9 29 5 0 6 -15 1 -34z m-1422 -80
c-7 -8 -15 -12 -17 -11 -5 6 10 25 20 25 5 0 4 -6 -3 -14z m1981 -63 c19 -16
22 -32 27 -143 9 -180 16 -233 34 -237 9 -3 11 -1 5 4 -19 15 -18 158 0 197
40 83 131 129 213 107 133 -35 187 -209 97 -307 -14 -15 -25 -30 -25 -35 0 -4
51 -8 113 -8 93 0 109 3 95 13 -33 24 -45 65 -47 156 -1 49 1 105 5 125 8 43
36 62 70 46 21 -9 24 -18 25 -68 0 -32 4 -80 7 -108 6 -42 11 -51 30 -53 16
-2 22 2 23 15 0 10 2 51 4 91 4 101 10 119 42 127 40 10 50 -12 58 -120 9
-114 2 -155 -31 -194 -13 -16 -21 -31 -17 -33 12 -6 203 -10 203 -4 0 3 -11
16 -25 30 -25 26 -32 60 -16 85 7 10 20 12 50 7 48 -7 52 3 13 36 -78 66 -92
120 -43 169 34 33 75 38 121 14 17 -9 30 -17 30 -19 0 -3 3 -11 6 -19 8 -21
-23 -47 -54 -47 -26 0 -26 -1 21 -46 26 -26 50 -58 54 -72 8 -32 -13 -92 -40
-114 -12 -9 -20 -19 -17 -21 5 -6 157 -11 205 -7 17 1 24 4 15 7 -44 16 -50
33 -50 137 0 56 3 125 7 154 l6 53 86 -3 86 -3 3 -32 c3 -31 2 -32 -42 -38
-48 -8 -66 -35 -23 -35 49 0 67 -11 67 -41 0 -26 -4 -29 -39 -35 -21 -3 -44
-10 -51 -14 -25 -15 -2 -39 44 -45 44 -7 46 -9 46 -41 0 -31 -3 -34 -37 -39
-69 -11 -90 -18 -70 -22 9 -3 15 -9 12 -14 -4 -5 26 -9 69 -9 74 0 76 -1 76
-25 l0 -25 -153 0 c-83 0 -167 -4 -185 -9 -40 -12 -170 -21 -344 -23 -71 -2
-128 -6 -128 -10 0 -5 -7 -8 -15 -8 -8 0 -15 5 -15 11 0 5 -5 7 -11 3 -8 -5
-8 -9 1 -14 7 -4 10 -13 6 -18 -4 -6 2 -16 13 -22 17 -9 19 -8 15 5 -3 8 -11
12 -17 8 -6 -3 -7 -1 -3 6 4 6 12 9 17 5 5 -3 17 0 26 8 9 7 14 8 10 2 -3 -6
0 -20 8 -30 14 -18 14 -18 10 4 -3 20 -2 22 10 12 15 -13 10 -40 -9 -40 -6 0
-4 -5 4 -10 21 -14 30 -12 24 4 -3 8 -1 16 3 19 5 3 10 -3 10 -14 1 -13 -7
-23 -23 -29 -33 -13 -36 -13 -29 3 4 6 0 4 -8 -5 -8 -10 -149 -63 -323 -121
-305 -103 -715 -242 -744 -253 -13 -4 -13 -6 0 -15 43 -28 -167 35 -256 77
-71 34 -102 64 -186 180 -32 44 -36 55 -28 80 l9 29 -2 -30 c-2 -50 13 -61 32
-23 9 18 23 32 30 30 9 -2 11 3 7 14 -4 11 -2 15 7 11 10 -4 13 2 11 18 -1 13
-4 27 -7 32 -3 4 6 8 19 8 18 0 21 -2 11 -10 -14 -11 -11 -49 4 -39 5 3 7 10
3 15 -3 6 1 18 9 27 9 10 18 29 21 44 2 15 14 38 27 50 l22 23 -6 -30 c-6 -27
-5 -28 5 -7 6 12 18 22 27 23 10 0 8 4 -7 10 -28 11 -19 33 10 24 22 -8 61 22
51 38 -3 6 -1 7 5 3 7 -4 12 -2 12 4 0 6 5 8 10 5 6 -3 10 -1 10 5 0 6 4 9 9
5 5 -3 10 7 10 22 0 16 2 39 5 53 4 14 9 81 12 150 7 169 11 189 37 200 12 5
122 9 243 9 197 1 224 -1 243 -16z m-564 -67 c4 -18 5 -44 2 -57 -3 -16 -5
-12 -6 14 0 21 -6 47 -11 58 -7 12 -7 19 -1 19 6 0 13 -15 16 -34z m-1388
-118 c-3 -8 -6 -5 -6 6 -1 11 2 17 5 13 3 -3 4 -12 1 -19z m791 -8 c28 -38 63
-39 91 -4 20 25 21 26 21 5 0 -11 5 -21 10 -21 21 0 9 -18 -20 -30 -16 -7 -30
-20 -30 -29 0 -12 -2 -13 -8 -3 -7 10 -14 10 -36 -2 l-28 -14 34 -7 c18 -4 38
-12 45 -17 17 -14 92 -2 115 19 19 17 20 17 34 -2 16 -21 19 -49 5 -40 -6 3
-9 -3 -8 -13 2 -34 -32 -89 -58 -96 -15 -4 -31 -18 -37 -34 -7 -15 -18 -35
-26 -44 -11 -13 -12 -18 -3 -18 7 0 9 -4 6 -10 -3 -5 -2 -18 4 -28 12 -22 0
-44 -18 -33 -9 6 -10 11 -2 15 6 4 11 13 11 19 0 7 -7 4 -15 -6 -7 -11 -11
-25 -9 -32 3 -7 -5 -20 -18 -29 l-22 -16 24 -1 c14 -1 28 -1 33 0 13 2 7 -26
-8 -39 -9 -7 -14 -18 -12 -24 5 -13 -18 -38 -27 -29 -10 11 -7 43 5 41 14 -4
36 29 26 38 -3 4 -13 1 -22 -6 -8 -7 -21 -10 -30 -6 -8 3 -14 2 -13 -2 1 -4
-3 -17 -10 -30 -11 -18 -10 -25 1 -37 8 -8 18 -11 21 -7 4 3 4 -1 0 -11 -3 -9
-11 -14 -17 -10 -6 4 -8 0 -4 -10 3 -9 2 -19 -3 -22 -6 -4 -10 9 -10 28 0 23
-8 40 -25 56 -14 12 -30 19 -34 16 -5 -2 -14 2 -21 10 -7 8 -16 13 -20 10 -5
-3 -12 0 -16 6 -4 8 -3 9 4 5 15 -9 15 -1 2 25 -7 11 -7 19 -1 19 5 0 9 39 8
90 -1 49 -6 90 -11 90 -5 0 -4 6 2 13 5 6 8 23 6 36 -6 32 -14 40 -14 14 0
-38 -14 -34 -31 9 -23 56 -25 140 -4 132 10 -4 15 0 15 14 0 16 5 19 23 15 18
-4 19 -3 7 6 -12 8 -5 11 28 11 27 0 41 4 37 10 -7 11 11 40 24 40 4 0 17 -13
29 -30z m543 -117 c-11 -21 -20 -35 -21 -31 0 12 33 78 38 74 2 -2 -6 -21 -17
-43z m-32 -70 c-10 -28 -69 -112 -69 -99 0 4 11 22 24 39 14 18 29 44 35 60 6
15 13 27 16 27 2 0 0 -12 -6 -27z m-222 -62 c0 -11 -5 -17 -9 -15 -11 7 -10
34 1 34 6 0 9 -9 8 -19z m253 -15 c0 -11 -19 -15 -25 -6 -3 5 1 10 9 10 9 0
16 -2 16 -4z m-119 -56 c-13 -11 -34 -20 -46 -20 -18 0 -26 -8 -35 -35 -6 -19
-15 -37 -19 -40 -5 -2 -1 16 8 40 13 37 20 45 42 45 14 0 34 7 45 15 28 21 33
17 5 -5z m-281 -34 c0 -3 -4 -8 -10 -11 -5 -3 -10 -1 -10 4 0 6 5 11 10 11 6
0 10 -2 10 -4z m1766 -51 c-1 -8 -5 -17 -8 -21 -5 -4 -4 16 1 34 3 9 9 -1 7
-13z m-2226 -82 c0 -8 -5 -13 -12 -11 -18 6 -21 25 -3 25 8 0 15 -7 15 -14z
m76 -41 c1 -7 0 -8 -3 -2 -2 5 -9 8 -14 4 -5 -3 -9 0 -9 6 0 15 23 7 26 -8z
m-1256 -62 c0 -6 -16 -57 -35 -113 -41 -118 -54 -222 -36 -292 15 -60 7 -70
-16 -19 -26 58 -24 184 4 254 12 30 32 83 45 117 21 57 38 80 38 53z m1328
-37 c16 -16 16 -16 -1 -10 -10 4 -23 7 -28 7 -5 0 -9 5 -9 10 0 15 20 12 38
-7z m182 -23 c0 -5 -4 -10 -10 -10 -5 0 -10 5 -10 10 0 6 5 10 10 10 6 0 10
-4 10 -10z m-1172 -46 c27 -42 28 -59 2 -91 -11 -14 -20 -35 -20 -47 0 -32
-21 -55 -57 -62 -30 -6 -33 -4 -54 42 -29 60 -30 111 -3 133 10 9 27 28 36 42
23 36 66 29 96 -17z m1078 -43 c-8 -7 -19 -10 -25 -7 -19 12 -12 24 14 22 20
-1 22 -3 11 -15z m-366 -21 c0 -5 -5 -10 -11 -10 -5 0 -7 5 -4 10 3 6 8 10 11
10 2 0 4 -4 4 -10z m365 -110 c10 -11 16 -20 13 -20 -3 0 -13 9 -23 20 -10 11
-16 20 -13 20 3 0 13 -9 23 -20z m992 -26 c65 -25 139 -57 166 -70 62 -32 209
-84 236 -84 21 0 101 -73 101 -92 0 -5 5 -6 12 -2 7 4 8 3 4 -4 -4 -7 -1 -12
6 -12 10 0 10 -2 -1 -9 -9 -6 -10 -11 -2 -15 6 -4 11 -3 11 3 0 5 9 13 20 16
11 3 20 13 20 21 0 8 5 14 11 14 5 0 9 -8 7 -18 -2 -11 2 -18 7 -18 6 1 9 8 8
18 -1 9 4 22 12 28 9 8 15 8 15 2 0 -6 -6 -13 -12 -16 -7 -3 -4 -4 8 -3 21 2
54 -18 54 -33 0 -4 -7 -11 -16 -14 -11 -4 -15 -2 -11 8 3 8 -1 17 -10 20 -20
8 -25 3 -17 -17 7 -19 44 -33 53 -20 10 15 49 11 44 -4 -4 -9 0 -11 11 -7 9 3
16 12 16 20 0 8 9 14 20 14 11 0 20 -4 20 -10 0 -5 -7 -6 -17 -3 -11 4 -14 3
-9 -6 4 -6 16 -9 27 -6 11 4 19 2 19 -5 0 -7 -9 -14 -20 -17 -24 -6 -26 -19
-4 -27 17 -7 37 1 30 12 -2 4 7 8 20 8 13 1 24 -2 24 -7 0 -5 7 -9 16 -9 9 0
14 -6 11 -13 -6 -17 50 -22 69 -6 10 8 14 8 14 1 0 -6 -6 -15 -14 -19 -12 -7
-11 -10 2 -23 14 -13 15 -12 9 4 -5 14 -3 17 8 13 8 -4 17 -2 20 3 7 11 35 2
35 -12 0 -6 -7 -8 -15 -4 -12 4 -13 2 -3 -14 12 -19 13 -19 23 0 13 23 28 26
31 4 3 -22 14 -31 22 -17 4 6 15 7 30 2 27 -10 28 -15 2 -22 -11 -3 -18 -1
-14 4 3 5 0 9 -5 9 -6 0 -11 -4 -11 -10 0 -5 -8 -10 -17 -11 -13 0 -12 -3 6
-10 13 -5 28 -6 35 -1 18 14 48 23 41 12 -3 -6 -14 -10 -23 -11 -11 0 -12 -2
-4 -6 6 -2 10 -9 6 -14 -3 -5 6 -9 20 -9 27 0 36 15 14 22 -8 3 -5 9 9 16 16
9 24 9 29 0 5 -7 3 -8 -6 -3 -8 5 -11 3 -8 -6 3 -8 12 -14 21 -14 23 0 34 -15
18 -24 -10 -7 -9 -10 3 -14 11 -4 16 -1 16 11 1 16 1 16 11 0 8 -14 15 -15 35
-8 23 9 25 8 22 -18 -2 -22 1 -28 22 -30 14 -2 30 -8 37 -13 7 -6 12 -6 15 0
4 14 48 2 48 -14 0 -18 72 -53 77 -37 6 17 32 15 39 -3 4 -8 10 -12 15 -9 5 3
6 -2 3 -10 -3 -9 -14 -16 -23 -16 -13 0 -13 -2 -2 -9 7 -5 10 -14 6 -21 -6 -9
-3 -9 13 -1 24 13 43 15 23 2 -11 -7 -10 -13 7 -31 18 -19 20 -35 21 -138 0
-65 2 -194 3 -288 3 -153 1 -174 -17 -211 -20 -41 -61 -74 -100 -80 -48 -7
-388 -23 -546 -25 -109 -2 -126 -4 -121 -18 3 -8 2 -13 -1 -10 -10 9 -107 231
-107 245 0 7 -11 28 -23 47 -13 19 -26 53 -30 77 -3 23 -12 50 -21 60 -9 10
-16 34 -16 55 0 20 -7 53 -17 74 -31 71 -63 242 -62 340 0 65 -6 116 -20 165
-11 40 -27 98 -36 130 -18 64 -74 137 -107 137 -24 0 -174 52 -220 76 -18 10
-98 44 -178 75 -80 32 -140 58 -133 59 7 0 65 -21 130 -46z m-1046 19 c13 -16
12 -17 -3 -4 -10 7 -18 15 -18 17 0 8 8 3 21 -13z m-56 -59 c-2 -33 0 -35 11
-19 10 14 11 22 3 32 -8 9 -8 13 -1 13 14 0 25 -19 28 -47 2 -13 -2 -21 -7
-17 -6 3 -17 3 -27 -1 -14 -5 -14 -7 -2 -15 8 -5 11 -12 7 -16 -4 -4 -15 0
-24 9 -12 12 -13 17 -5 17 7 0 10 5 6 11 -4 7 -9 30 -12 53 -4 34 -2 39 10 29
8 -7 13 -28 13 -49z m40 46 c8 -13 -5 -13 -25 0 -13 8 -13 10 2 10 9 0 20 -4
23 -10z m28 -85 c-3 -9 -8 -14 -10 -11 -3 3 -2 9 2 15 9 16 15 13 8 -4z m-308
-23 c-6 -7 -34 11 -29 19 3 5 11 3 19 -4 7 -6 12 -13 10 -15z m-488 -87 c50
-50 44 -82 -21 -113 -28 -13 -60 -22 -72 -19 -17 3 -26 -2 -34 -22 -31 -72
-144 -150 -299 -206 -38 -14 -77 -25 -86 -25 -10 0 -38 20 -62 45 l-43 45 0
-33 c0 -36 21 -61 75 -91 26 -15 27 -16 5 -10 -14 3 -39 17 -56 30 -17 13 -34
20 -38 17 -3 -4 -6 24 -6 61 0 84 25 136 81 171 24 16 37 30 33 38 -5 9 -3 9
7 0 23 -22 29 -20 234 70 79 35 201 76 229 77 10 0 34 -16 53 -35z m244 -48
c-10 -9 -11 -8 -5 6 3 10 9 15 12 12 3 -3 0 -11 -7 -18z m2149 13 c0 5 7 10
15 10 10 0 8 -6 -8 -23 -21 -21 -32 -24 -32 -9 0 4 -4 13 -9 20 -7 11 -4 12
13 3 14 -8 21 -8 21 -1z m-2023 -86 c-3 -3 -12 -4 -19 -1 -8 3 -5 6 6 6 11 1
17 -2 13 -5z m-47 -14 c-8 -5 -22 -10 -30 -10 -13 0 -13 1 0 10 8 5 22 10 30
10 13 0 13 -1 0 -10z m166 -62 c4 -13 2 -24 -5 -26 -6 -2 -11 -18 -12 -35 l-1
-32 -8 29 c-10 31 -3 86 11 86 4 0 11 -10 15 -22z m-246 -12 c0 -2 -7 -7 -16
-10 -8 -3 -12 -2 -9 4 6 10 25 14 25 6z m-46 -81 c14 -21 14 -25 0 -36 -12
-10 -16 -9 -20 9 -4 11 -12 18 -19 16 -7 -3 -15 2 -19 11 -3 9 -2 13 4 10 6
-3 10 1 10 9 0 21 25 10 44 -19z m2931 15 c3 -5 2 -10 -4 -10 -5 0 -13 5 -16
10 -3 6 -2 10 4 10 5 0 13 -4 16 -10z m-3009 -44 c3 -8 12 -12 19 -10 7 3 16
0 21 -7 4 -7 2 -15 -4 -17 -7 -2 -12 -10 -12 -18 0 -8 -9 -14 -20 -14 -11 0
-20 -4 -20 -10 0 -5 -6 -10 -14 -10 -8 0 -16 -4 -18 -10 -2 -6 -9 -5 -18 1
-11 8 -12 12 -2 16 6 2 10 9 6 14 -3 5 1 12 10 15 8 3 18 19 21 35 7 31 22 38
31 15z m414 -17 c0 -5 -9 -18 -20 -29 l-21 -21 7 28 c4 16 9 31 11 36 5 9 23
-1 23 -14z m-10 -68 c0 -6 -4 -13 -10 -16 -5 -3 -10 1 -10 9 0 9 5 16 10 16 6
0 10 -4 10 -9z m-1011 -67 c10 -9 -72 -3 -90 6 -38 21 -18 29 34 13 28 -8 54
-17 56 -19z m771 -7 c0 -5 -4 -5 -10 -2 -5 3 -10 14 -10 23 0 15 2 15 10 2 5
-8 10 -19 10 -23z m-42 -19 c15 -26 15 -28 -9 -51 -13 -13 -34 -27 -47 -31
-33 -11 -15 -29 22 -22 l31 6 -30 -20 c-16 -11 -34 -20 -40 -20 -5 0 -23 -7
-39 -15 -15 -8 -32 -13 -36 -10 -4 3 -11 -2 -14 -11 -3 -8 -11 -14 -18 -12 -7
1 -30 -6 -50 -16 -20 -10 -42 -18 -50 -20 -14 -2 -71 -56 -60 -57 4 0 -3 -4
-15 -9 -14 -6 -21 -15 -17 -24 3 -8 -3 -19 -15 -25 -28 -15 -36 -14 -21 4 11
13 8 14 -21 8 -55 -10 -99 -32 -99 -48 0 -8 -4 -15 -10 -15 -16 0 -90 71 -106
101 -13 25 -12 28 5 34 10 3 21 15 24 25 3 12 14 20 26 20 12 0 29 4 39 10 9
5 42 21 72 35 30 14 66 32 80 40 14 8 68 33 120 56 52 22 124 54 160 70 76 34
96 34 118 -3z m-646 -22 c17 -9 37 -16 45 -16 7 0 13 -9 13 -20 0 -11 -3 -20
-7 -20 -5 0 -21 -13 -38 -28 -16 -15 -38 -31 -48 -35 -10 -4 -17 -14 -15 -23
2 -9 -5 -21 -15 -28 -16 -9 -23 -6 -46 22 -18 21 -27 41 -24 55 2 12 -5 40
-16 61 -19 37 -20 67 -2 37 6 -9 11 -10 15 -2 4 6 11 9 15 7 4 -3 13 -1 21 4
18 11 63 5 102 -14z m-155 -97 c-3 -10 -1 -19 3 -19 5 0 8 -19 8 -42 -1 -24 2
-52 6 -63 6 -16 6 -17 -3 -5 -8 11 -11 12 -11 2 0 -7 -4 -11 -10 -7 -5 3 -6
13 -3 22 4 11 3 14 -5 9 -12 -7 -14 2 -16 59 -1 11 -4 21 -8 23 -5 1 -7 -1 -5
-4 1 -3 -6 -10 -16 -15 -9 -6 -15 -15 -11 -20 3 -6 -1 -18 -10 -27 -16 -18
-30 -97 -20 -113 7 -12 12 -129 6 -129 -3 0 -18 14 -34 32 -35 39 -41 104 -9
95 14 -3 18 -1 14 9 -3 8 -9 11 -14 8 -14 -9 -11 3 23 73 18 36 45 79 59 94
15 16 25 29 23 29 -3 0 0 10 7 22 10 19 12 20 21 4 6 -10 8 -26 5 -37z m276 4
c-7 -2 -21 -2 -30 0 -10 3 -4 5 12 5 17 0 24 -2 18 -5z m627 -48 c0 -25 -32
-68 -40 -54 -10 15 -30 3 -30 -19 0 -18 -55 -60 -67 -52 -5 3 -7 8 -6 12 2 4
-4 5 -12 2 -8 -4 -15 -11 -15 -18 -1 -15 -46 -66 -60 -66 -6 0 -8 -4 -5 -10 3
-5 0 -10 -7 -10 -7 0 -18 -10 -23 -22 -9 -20 -75 -62 -152 -97 -46 -21 -181
75 -142 100 8 5 20 9 27 9 6 0 12 4 12 9 0 8 56 24 90 26 8 1 47 19 85 42 39
22 93 51 120 63 28 12 63 28 78 35 27 13 28 13 22 -8 -6 -20 -4 -19 19 6 14
15 29 27 34 27 5 0 17 9 27 20 21 24 45 26 45 5z m-973 -137 c-3 -7 -5 -2 -5
12 0 14 2 19 5 13 2 -7 2 -19 0 -25z m-360 -103 c-4 -8 -2 -17 3 -20 12 -7 13
-78 3 -89 -5 -4 -8 -11 -8 -14 -3 -37 -35 -72 -35 -38 0 7 -7 19 -15 26 -28
23 -17 87 23 133 18 21 36 23 29 2z m548 -14 c3 -5 1 -12 -5 -16 -5 -3 -10 1
-10 9 0 18 6 21 15 7z m-185 -51 c0 -5 -2 -10 -4 -10 -3 0 -8 5 -11 10 -3 6
-1 10 4 10 6 0 11 -4 11 -10z m-54 -27 c-10 -10 -19 5 -10 18 6 11 8 11 12 0
2 -7 1 -15 -2 -18z m224 -26 c-8 -9 -10 -8 -5 6 5 12 2 17 -11 17 -16 0 -17 2
-4 10 19 12 37 -17 20 -33z m-190 -12 c0 -8 -4 -15 -10 -15 -5 0 -7 7 -4 15 4
8 8 15 10 15 2 0 4 -7 4 -15z m-36 -218 c26 -34 58 -81 69 -104 14 -28 30 -46
50 -53 38 -13 110 -13 102 0 -3 5 -18 7 -34 4 -23 -5 -29 -2 -34 15 -4 16 0
22 18 27 13 3 29 3 34 -1 6 -3 11 -1 11 4 0 6 9 11 20 11 16 0 20 -7 20 -32 0
-33 9 -34 14 -1 4 25 37 29 53 7 7 -10 13 -13 13 -7 0 6 16 17 35 23 19 6 42
21 50 33 l15 21 16 -22 c9 -14 22 -21 32 -18 10 3 23 2 31 -3 17 -11 61 14 61
35 0 13 18 29 26 22 9 -10 -50 -74 -103 -111 -32 -22 -74 -53 -92 -70 -86 -74
-193 -87 -252 -31 -17 16 -60 68 -95 116 -69 91 -98 112 -179 127 -46 9 -72
21 -44 21 8 0 30 11 49 25 19 14 41 25 49 25 9 -1 38 -29 65 -63z"/>
<path d="M1636 3161 c-13 -15 -14 -20 -4 -24 8 -3 5 -6 -7 -6 -27 -2 -63 -31
-67 -55 -5 -31 18 -29 55 3 39 35 47 37 47 17 0 -43 64 -60 95 -26 l19 21 22
-26 c21 -25 61 -31 76 -11 4 6 13 4 22 -3 14 -12 16 -9 16 25 0 22 -4 45 -8
51 -7 11 -105 24 -170 23 -13 0 -33 7 -45 15 -27 19 -30 19 -51 -4z m34 -1 c0
-5 -8 -10 -17 -10 -15 0 -16 2 -3 10 19 12 20 12 20 0z"/>
<path d="M1544 3159 c-16 -27 44 -31 65 -5 7 9 1 12 -25 13 -19 0 -37 -3 -40
-8z"/>
<path d="M1745 3019 c-28 -6 -28 -7 -4 -8 14 0 30 -6 36 -12 9 -9 19 -6 39 10
l28 22 -35 -3 c-19 -1 -47 -5 -64 -9z"/>
<path d="M1695 2980 c-16 -7 -13 -9 17 -9 20 -1 40 4 43 9 7 12 -32 12 -60 0z"/>
<path d="M1851 2558 c-9 -24 -8 -34 1 -40 10 -6 10 -10 -2 -19 -13 -9 -13 -10
0 -6 10 2 15 18 16 50 0 26 0 47 -2 47 -1 0 -7 -14 -13 -32z"/>
<path d="M1759 2531 c12 -8 12 -12 2 -24 -8 -11 -9 -17 -1 -22 14 -9 31 38 16
47 -6 4 -15 8 -21 8 -5 0 -4 -4 4 -9z"/>
<path d="M1812 2525 c-11 -12 -10 -15 3 -15 8 0 15 7 15 15 0 18 -2 18 -18 0z"/>
<path d="M1695 2496 c-16 -13 -27 -28 -23 -32 7 -6 58 39 58 52 0 7 -4 5 -35
-20z"/>
<path d="M1770 2470 c-9 -6 -10 -10 -3 -10 6 0 15 5 18 10 8 12 4 12 -15 0z"/>
<path d="M2071 2331 c-8 -5 -9 -11 -3 -15 5 -3 15 1 22 9 14 16 3 20 -19 6z"/>
<path d="M1633 2180 c0 -25 2 -35 4 -22 2 12 2 32 0 45 -2 12 -4 2 -4 -23z"/>
<path d="M1855 2190 c3 -5 8 -10 11 -10 2 0 4 5 4 10 0 6 -5 10 -11 10 -5 0
-7 -4 -4 -10z"/>
<path d="M1774 2139 c-4 -7 -3 -9 4 -5 5 3 13 0 15 -6 4 -9 6 -10 6 -1 1 17
-16 25 -25 12z"/>
<path d="M1959 2129 c12 -12 25 -18 29 -14 4 4 -2 13 -12 21 -30 22 -43 17
-17 -7z"/>
<path d="M1732 2087 c-7 -8 -7 -18 -2 -27 6 -8 10 -12 11 -7 1 4 2 10 3 15 1
4 5 13 9 20 11 16 -7 16 -21 -1z"/>
<path d="M1695 2080 c-3 -5 -1 -10 4 -10 6 0 11 5 11 10 0 6 -2 10 -4 10 -3 0
-8 -4 -11 -10z"/>
<path d="M2971 3161 c-11 -7 -12 -27 -5 -102 4 -52 6 -105 5 -118 -2 -13 1
-21 7 -17 8 5 24 143 27 230 0 13 -18 17 -34 7z"/>
<path d="M3110 3160 c-8 -5 -6 -19 16 -98 7 -24 41 5 47 40 3 18 8 40 11 49 5
12 -1 15 -29 15 -19 0 -40 -3 -45 -6z"/>
<path d="M3282 3163 c-9 -3 -10 -9 -2 -17 5 -7 13 -60 16 -117 6 -98 15 -132
30 -116 4 4 1 13 -6 22 -7 8 -8 15 -3 15 5 0 10 6 10 13 1 6 3 52 7 102 6 100
-3 118 -52 98z"/>
<path d="M3596 3045 c-43 -43 -25 -109 32 -120 30 -6 39 -3 54 15 40 50 15
120 -43 120 -15 0 -34 -7 -43 -15z"/>
<path d="M3135 2910 c4 -6 11 -8 16 -5 14 9 11 15 -7 15 -8 0 -12 -5 -9 -10z"/>
<path d="M2770 2730 c0 -5 5 -10 11 -10 5 0 7 5 4 10 -3 6 -8 10 -11 10 -2 0
-4 -4 -4 -10z"/>
<path d="M3905 2660 c3 -5 10 -10 16 -10 5 0 9 5 9 10 0 6 -7 10 -16 10 -8 0
-12 -4 -9 -10z"/>
<path d="M4041 2644 c0 -11 3 -14 6 -6 3 7 2 16 -1 19 -3 4 -6 -2 -5 -13z"/>
<path d="M3979 2637 c6 -8 7 -18 3 -22 -4 -5 -1 -5 6 -1 10 6 10 11 1 22 -6 8
-14 14 -16 14 -3 0 0 -6 6 -13z"/>
<path d="M2215 2950 c3 -5 8 -10 11 -10 2 0 4 5 4 10 0 6 -5 10 -11 10 -5 0
-7 -4 -4 -10z"/>
<path d="M3700 1850 c0 -5 7 -7 15 -4 8 4 15 8 15 10 0 2 -7 4 -15 4 -8 0 -15
-4 -15 -10z"/>
<path d="M3757 1839 c7 -7 15 -10 18 -7 3 3 -2 9 -12 12 -14 6 -15 5 -6 -5z"/>
<path d="M3990 1803 c0 -6 8 -17 18 -24 16 -13 16 -13 2 6 -8 11 -16 22 -17
24 -2 2 -3 0 -3 -6z"/>
<path d="M4563 1541 c24 -31 38 -43 43 -38 3 3 -3 14 -14 25 -11 11 -18 22
-16 25 2 2 -3 4 -11 4 -12 0 -12 -3 -2 -16z"/>
<path d="M4736 1405 c4 -8 11 -15 16 -15 6 0 5 6 -2 15 -7 8 -14 15 -16 15 -2
0 -1 -7 2 -15z"/>
<path d="M1360 1330 c0 -5 5 -10 11 -10 5 0 7 5 4 10 -3 6 -8 10 -11 10 -2 0
-4 -4 -4 -10z"/>
<path d="M2567 4179 c7 -7 15 -10 18 -7 3 3 -2 9 -12 12 -14 6 -15 5 -6 -5z"/>
</g>
</svg>
